<?xml version="1.0" encoding="UTF-8" standalone="no"?>
<svg
   xmlns:dc="http://purl.org/dc/elements/1.1/"
   xmlns:cc="http://creativecommons.org/ns#"
   xmlns:rdf="http://www.w3.org/1999/02/22-rdf-syntax-ns#"
   xmlns:svg="http://www.w3.org/2000/svg"
   xmlns="http://www.w3.org/2000/svg"
   xmlns:sodipodi="http://sodipodi.sourceforge.net/DTD/sodipodi-0.dtd"
   xmlns:inkscape="http://www.inkscape.org/namespaces/inkscape"
   width="297mm"
   height="210mm"
   viewBox="0 0 297 210"
   version="1.1"
   id="svg8"
   inkscape:version="1.0.1 (3bc2e813f5, 2020-09-07)"
   sodipodi:docname="logo.svg">
  <defs
     id="defs2" />
  <sodipodi:namedview
     id="base"
     pagecolor="#000000"
     bordercolor="#666666"
     borderopacity="0.0"
     inkscape:pageopacity="0.0"
     inkscape:pageshadow="2"
     inkscape:zoom="0.7"
     inkscape:cx="492.7938"
     inkscape:cy="528.39986"
     inkscape:document-units="mm"
     inkscape:current-layer="layer1"
     inkscape:document-rotation="0"
     showgrid="false"
     inkscape:window-width="1710"
     inkscape:window-height="1030"
     inkscape:window-x="160"
     inkscape:window-y="0"
     inkscape:window-maximized="0" />
  <metadata
     id="metadata5">
    <rdf:RDF>
      <cc:Work
         rdf:about="">
        <dc:format>image/svg+xml</dc:format>
        <dc:type
           rdf:resource="http://purl.org/dc/dcmitype/StillImage" />
        <dc:title></dc:title>
      </cc:Work>
    </rdf:RDF>
  </metadata>
  <g
     inkscape:label="Слой 1"
     inkscape:groupmode="layer"
     id="layer1">
    <g
       id="g848"
       style="font-size:24.5012px;line-height:1.25;font-family:'Bauhaus 93';-inkscape-font-specification:'Bauhaus 93, ';fill:#FFFFFF;stroke-width:1;stroke-miterlimit:4;stroke-dasharray:none"
       transform="matrix(1.2336303,0,0,1.1640724,-24.448778,23.795906)">
      <path
         style="color:#000000;font-style:normal;font-variant:normal;font-weight:normal;font-stretch:normal;font-size:117.606px;line-height:1.25;font-family:'Bauhaus 93';-inkscape-font-specification:'Bauhaus 93, ';font-variant-ligatures:normal;font-variant-position:normal;font-variant-caps:normal;font-variant-numeric:normal;font-variant-alternates:normal;font-variant-east-asian:normal;font-feature-settings:normal;font-variation-settings:normal;text-indent:0;text-align:start;text-decoration:none;text-decoration-line:none;text-decoration-style:solid;text-decoration-color:#000000;letter-spacing:normal;word-spacing:normal;text-transform:none;writing-mode:lr-tb;direction:ltr;text-orientation:mixed;dominant-baseline:auto;baseline-shift:baseline;text-anchor:start;white-space:normal;shape-padding:0;shape-margin:0;inline-size:0;clip-rule:nonzero;display:inline;overflow:visible;visibility:visible;opacity:1;isolation:auto;mix-blend-mode:normal;color-interpolation:sRGB;color-interpolation-filters:linearRGB;solid-color:#000000;solid-opacity:1;vector-effect:none;fill:#FFFFFF;fill-opacity:1;fill-rule:nonzero;stroke:none;stroke-width:1;stroke-linecap:butt;stroke-linejoin:miter;stroke-miterlimit:4;stroke-dasharray:none;stroke-dashoffset:0;stroke-opacity:1;color-rendering:auto;image-rendering:auto;shape-rendering:auto;text-rendering:auto;enable-background:accumulate;stop-color:#000000;stop-opacity:1"
         d="M 31.359375,20.207031 V 99.591797 H 55.673828 V 42.28125 h 3.634766 c 2.77834,0 4.810947,0.465951 6.099609,1.310547 1.288662,0.844596 1.900391,2.030178 1.900391,3.759765 0,2.008607 -0.563966,3.41398 -1.664063,4.359376 -1.100097,0.945395 -2.808989,1.457031 -5.1875,1.457031 h -2.33789 V 73.931641 L 69.609375,99.591797 H 95.144531 L 81.550781,66.884766 c 6.809581,-5.465114 10.300782,-12.217667 10.300781,-20.164063 0,-7.89136 -2.864898,-14.470479 -8.548828,-19.609375 -5.12698,-4.618195 -12.331354,-6.904297 -21.52539,-6.904297 z m 1,1 h 29.417969 c 9.02877,0 15.952249,2.229844 20.855468,6.646485 5.494765,4.96787 8.21875,11.215565 8.21875,18.867187 0,7.77889 -3.366695,14.283097 -10.203124,19.646485 l -0.298829,0.236328 13.296875,31.988281 H 70.255859 L 59.119141,73.71875 V 54.167969 h 1.33789 c 2.52174,0 4.489816,-0.539039 5.839844,-1.699219 1.350028,-1.16018 2.011719,-2.914642 2.011719,-5.117188 0,-1.983883 -0.807268,-3.583563 -2.351563,-4.595703 C 64.412736,41.74372 62.196168,41.28125 59.308594,41.28125 h -4.634766 v 0.5 56.810547 H 32.359375 Z"
         id="path1377" />
      <path
         style="color:#000000;font-style:normal;font-variant:normal;font-weight:normal;font-stretch:normal;font-size:117.606px;line-height:1.25;font-family:'Bauhaus 93';-inkscape-font-specification:'Bauhaus 93, ';font-variant-ligatures:normal;font-variant-position:normal;font-variant-caps:normal;font-variant-numeric:normal;font-variant-alternates:normal;font-variant-east-asian:normal;font-feature-settings:normal;font-variation-settings:normal;text-indent:0;text-align:start;text-decoration:none;text-decoration-line:none;text-decoration-style:solid;text-decoration-color:#000000;letter-spacing:normal;word-spacing:normal;text-transform:none;writing-mode:lr-tb;direction:ltr;text-orientation:mixed;dominant-baseline:auto;baseline-shift:baseline;text-anchor:start;white-space:normal;shape-padding:0;shape-margin:0;inline-size:0;clip-rule:nonzero;display:inline;overflow:visible;visibility:visible;isolation:auto;mix-blend-mode:normal;color-interpolation:sRGB;color-interpolation-filters:linearRGB;solid-color:#000000;solid-opacity:1;vector-effect:none;fill:#FFFFFF;fill-opacity:1;fill-rule:nonzero;stroke:none;stroke-width:1;stroke-linecap:butt;stroke-linejoin:miter;stroke-miterlimit:4;stroke-dasharray:none;stroke-dashoffset:0;stroke-opacity:1;color-rendering:auto;image-rendering:auto;shape-rendering:auto;text-rendering:auto;enable-background:accumulate;stop-color:#000000;stop-opacity:1"
         d="M 31.552734,20.400391 V 99.398438 H 55.480469 V 42.087891 h 3.828125 c 2.799502,0 4.868844,0.464742 6.207031,1.341797 1.338187,0.877054 1.986328,2.143021 1.986328,3.921874 0,2.046179 -0.581952,3.518853 -1.730469,4.50586 -1.148517,0.987007 -2.908194,1.505859 -5.314453,1.505859 H 58.314453 V 73.890625 L 69.734375,99.398438 H 94.853516 L 81.320312,66.837891 c 6.855356,-5.453498 10.337891,-12.178997 10.337891,-20.117188 0,-7.844914 -2.837093,-14.359081 -8.484375,-19.464844 h -0.002 C 78.088245,22.676712 70.939362,20.400391 61.777344,20.400391 Z m 0.613282,0.613281 h 29.611328 c 9.060072,0 16.037875,2.242278 20.984375,6.697266 5.531412,5.001003 8.283203,11.311698 8.283203,19.009765 0,7.835357 -3.402992,14.407223 -10.275391,19.798828 L 80.585938,66.664062 93.9375,98.785156 H 70.130859 L 58.925781,73.759766 V 53.974609 h 1.53125 c 2.493992,0 4.411283,-0.533774 5.712891,-1.652343 1.301608,-1.11857 1.943359,-2.80573 1.943359,-4.970704 0,-1.934617 -0.766948,-3.453913 -2.261719,-4.433593 -1.49477,-0.979681 -3.676556,-1.44336 -6.542968,-1.44336 H 54.867188 V 41.78125 98.785156 H 32.166016 Z"
         id="path852" />
    </g>
    <g
       id="g854"
       style="font-size:24.5012px;line-height:1.25;font-family:'Bauhaus 93';-inkscape-font-specification:'Bauhaus 93, ';fill:#FFFFFF;fill-opacity:1;stroke:#000000;stroke-width:1;stroke-linejoin:round;stroke-miterlimit:4;stroke-dasharray:none;stroke-dashoffset:0;stroke-opacity:1"
       transform="matrix(1.2336303,0,0,1.1640724,-17.473401,23.795906)">
      <path
         style="color:#000000;font-style:normal;font-variant:normal;font-weight:normal;font-stretch:normal;font-size:117.606px;line-height:1.25;font-family:'Bauhaus 93';-inkscape-font-specification:'Bauhaus 93, ';font-variant-ligatures:normal;font-variant-position:normal;font-variant-caps:normal;font-variant-numeric:normal;font-variant-alternates:normal;font-variant-east-asian:normal;font-feature-settings:normal;font-variation-settings:normal;text-indent:0;text-align:start;text-decoration:none;text-decoration-line:none;text-decoration-style:solid;text-decoration-color:#000000;letter-spacing:normal;word-spacing:normal;text-transform:none;writing-mode:lr-tb;direction:ltr;text-orientation:mixed;dominant-baseline:auto;baseline-shift:baseline;text-anchor:start;white-space:normal;shape-padding:0;shape-margin:0;inline-size:0;clip-rule:nonzero;display:inline;overflow:visible;visibility:visible;opacity:1;isolation:auto;mix-blend-mode:normal;color-interpolation:sRGB;color-interpolation-filters:linearRGB;solid-color:#000000;solid-opacity:1;vector-effect:none;fill:#FFFFFF;fill-opacity:1;fill-rule:nonzero;stroke:none;stroke-width:1;stroke-linecap:butt;stroke-linejoin:round;stroke-miterlimit:4;stroke-dasharray:none;stroke-dashoffset:0;stroke-opacity:1;color-rendering:auto;image-rendering:auto;shape-rendering:auto;text-rendering:auto;enable-background:accumulate;stop-color:#000000;stop-opacity:1"
         d="m 129.94141,18.253906 c -8.98228,0 -16.25755,2.72825 -21.71485,8.185547 a 0.50005,0.50005 0 0 0 -0.002,0.002 c -5.41909,5.458067 -8.12695,12.75207 -8.12695,21.771485 v 50.878906 a 0.50005,0.50005 0 0 0 0.5,0.5 h 23.31445 a 0.50005,0.50005 0 0 0 0.5,-0.5 V 49.017578 c 0,-2.335367 0.41162,-4.031495 1.14648,-5.099609 0.73487,-1.068114 1.76597,-1.578125 3.29102,-1.578125 1.58656,0 2.66533,0.51593 3.42578,1.583984 0.76046,1.068054 1.18555,2.760383 1.18555,5.09375 v 50.074219 a 0.50005,0.50005 0 0 0 0.5,0.5 h 23.31445 a 0.50005,0.50005 0 0 0 0.5,-0.5 V 49.017578 c 0,-9.841889 -2.379,-17.465343 -7.19141,-22.787109 -4.77529,-5.32328 -11.70103,-7.976563 -20.64257,-7.976563 z m 0,1 c 8.74529,0 15.33263,2.55478 19.89843,7.644532 a 0.50005,0.50005 0 0 0 0.002,0.002 c 4.60455,5.091213 6.93359,12.435362 6.93359,22.117187 V 98.591797 H 134.46094 V 49.017578 c 0,-2.452034 -0.42795,-4.349182 -1.3711,-5.673828 -0.94314,-1.324646 -2.41958,-2.003906 -4.24023,-2.003906 -1.7673,0 -3.20392,0.685179 -4.11523,2.009765 -0.91132,1.324587 -1.32227,3.217935 -1.32227,5.667969 V 98.591797 H 101.09766 V 48.212891 c 0,-8.82056 2.61228,-15.805175 7.83593,-21.066407 5.26201,-5.262 12.22669,-7.892578 21.00782,-7.892578 z"
         id="path1381" />
    </g>
    <g
       id="g860"
       style="font-size:24.5012px;line-height:1.25;font-family:'Bauhaus 93';-inkscape-font-specification:'Bauhaus 93, ';fill:#FFFFFF;fill-opacity:1;stroke:#000000;stroke-width:1;stroke-miterlimit:4;stroke-dasharray:none;stroke-opacity:1"
       transform="matrix(1.2336303,0,0,1.1640724,-14.302775,23.795906)">
      <path
         style="color:#000000;font-style:normal;font-variant:normal;font-weight:normal;font-stretch:normal;font-size:117.606px;line-height:1.25;font-family:'Bauhaus 93';-inkscape-font-specification:'Bauhaus 93, ';font-variant-ligatures:normal;font-variant-position:normal;font-variant-caps:normal;font-variant-numeric:normal;font-variant-alternates:normal;font-variant-east-asian:normal;font-feature-settings:normal;font-variation-settings:normal;text-indent:0;text-align:start;text-decoration:none;text-decoration-line:none;text-decoration-style:solid;text-decoration-color:#000000;letter-spacing:normal;word-spacing:normal;text-transform:none;writing-mode:lr-tb;direction:ltr;text-orientation:mixed;dominant-baseline:auto;baseline-shift:baseline;text-anchor:start;white-space:normal;shape-padding:0;shape-margin:0;inline-size:0;clip-rule:nonzero;display:inline;overflow:visible;visibility:visible;opacity:1;isolation:auto;mix-blend-mode:normal;color-interpolation:sRGB;color-interpolation-filters:linearRGB;solid-color:#000000;solid-opacity:1;vector-effect:none;fill:#FFFFFF;fill-opacity:1;fill-rule:nonzero;stroke:none;stroke-width:1;stroke-linecap:butt;stroke-linejoin:miter;stroke-miterlimit:4;stroke-dasharray:none;stroke-dashoffset:0;stroke-opacity:1;color-rendering:auto;image-rendering:auto;shape-rendering:auto;text-rendering:auto;enable-background:accumulate;stop-color:#000000;stop-opacity:1"
         d="m 170.95898,20.207031 v 79.384766 h 22.99219 v 0.207031 l 0.47656,0.02148 c 3.23951,0.154259 9.64949,0.230472 11.08399,0.230472 12.16291,0 22.17347,-3.803085 29.92383,-11.39844 7.75076,-7.595741 11.63476,-17.438743 11.63476,-29.414063 0,-12.524129 -4.55613,-22.524378 -13.62304,-29.847656 -7.65389,-6.138652 -18.21116,-9.183594 -31.60938,-9.183594 z m 1,1 h 29.87891 c 13.24688,0 23.55273,3.004051 30.98242,8.962891 8.84888,7.14768 13.25,16.785488 13.25,29.068359 0,11.760266 -3.77145,21.289899 -11.33398,28.701172 -7.56292,7.411661 -17.2691,11.111328 -29.22461,11.111328 -1.2975,0 -6.8828,-0.08191 -10.24024,-0.21289 -0.30257,-7.355908 -0.2693,-14.69861 -0.23437,-22.042969 h 7.25977 c 6.86498,0 12.08591,-1.433066 15.60937,-4.38086 3.52346,-2.947793 5.27539,-7.391118 5.27539,-13.175781 0,-5.444748 -1.73007,-9.63448 -5.19726,-12.40625 -3.4672,-2.771769 -8.59672,-4.115234 -15.34376,-4.115234 h -8.36718 v 0.5 c -0.007,10.855751 -0.1838,21.711371 -0.24805,32.578125 h -0.0742 V 98.591797 H 171.959 Z m 23.3086,22.509766 h 7.37304 c 6.61381,0 11.50553,1.327747 14.71876,3.896484 3.21322,2.568738 4.82226,6.388735 4.82226,11.625 0,5.585449 -1.6442,9.670941 -4.91602,12.408203 -3.27181,2.737262 -8.24319,4.148438 -14.96874,4.148438 h -7.27149 c 0.0633,-10.687025 0.22774,-21.374897 0.24219,-32.078125 z"
         id="path1385" />
    </g>
    <path
       id="path875"
       style="fill:#FFFFFF;fill-opacity:1;stroke:none;stroke-width:0.599172;stroke-miterlimit:4;stroke-dasharray:none;stroke-opacity:1"
       d="m 17.882041,48.237846 a 2.9958669,2.9958669 0 0 1 -2.995867,2.995867 2.9958669,2.9958669 0 0 1 -2.995867,-2.995867 2.9958669,2.9958669 0 0 1 2.995867,-2.995867 2.9958669,2.9958669 0 0 1 2.995867,2.995867 z" />
    <path
       id="path875-5"
       style="fill:#FFFFFF;fill-opacity:1;stroke:none;stroke-width:0.599172;stroke-miterlimit:4;stroke-dasharray:none;stroke-opacity:1"
       d="m 69.4738,50.185872 a 2.9958669,2.9958669 0 0 1 -2.995867,2.995867 2.9958669,2.9958669 0 0 1 -2.995869,-2.995867 2.9958669,2.9958669 0 0 1 2.995869,-2.995867 2.9958669,2.9958669 0 0 1 2.995867,2.995867 z" />
    <path
       id="path875-6"
       style="fill:#FFFFFF;fill-opacity:1;stroke:none;stroke-width:0.599172;stroke-miterlimit:4;stroke-dasharray:none;stroke-opacity:1"
       d="m 46.573662,73.16608 a 2.9958669,2.9958669 0 0 1 -2.995868,2.995867 2.9958669,2.9958669 0 0 1 -2.995867,-2.995867 2.9958669,2.9958669 0 0 1 2.995867,-2.995867 2.9958669,2.9958669 0 0 1 2.995868,2.995867 z" />
    <path
       id="path875-3"
       style="fill:#FFFFFF;fill-opacity:1;stroke:none;stroke-width:0.599172;stroke-miterlimit:4;stroke-dasharray:none;stroke-opacity:1"
       d="M 51.217749,86.37769 A 2.9958669,2.9958669 0 0 1 48.22188,89.373557 2.9958669,2.9958669 0 0 1 45.226013,86.37769 2.9958669,2.9958669 0 0 1 48.22188,83.381823 2.9958669,2.9958669 0 0 1 51.217749,86.37769 Z" />
    <path
       id="path875-4"
       style="fill:#FFFFFF;fill-opacity:1;stroke:none;stroke-width:0.599172;stroke-miterlimit:4;stroke-dasharray:none;stroke-opacity:1"
       d="m 51.618103,109.83832 a 2.9958669,2.9958669 0 0 1 -2.995867,2.99587 2.9958669,2.9958669 0 0 1 -2.995868,-2.99587 2.9958669,2.9958669 0 0 1 2.995868,-2.99586 2.9958669,2.9958669 0 0 1 2.995867,2.99586 z" />
    <path
       id="path875-9"
       style="fill:#FFFFFF;fill-opacity:1;stroke:none;stroke-width:0.599172;stroke-miterlimit:4;stroke-dasharray:none;stroke-opacity:1"
       d="m 65.035181,139.04855 a 2.9958669,2.9958669 0 0 1 -2.995869,2.99587 2.9958669,2.9958669 0 0 1 -2.995863,-2.99587 2.9958669,2.9958669 0 0 1 2.995863,-2.99587 2.9958669,2.9958669 0 0 1 2.995869,2.99587 z" />
    <path
       id="path875-7"
       style="fill:#FFFFFF;fill-opacity:1;stroke:none;stroke-width:0.599172;stroke-miterlimit:4;stroke-dasharray:none;stroke-opacity:1"
       d="m 95.622085,139.04855 a 2.9958669,2.9958669 0 0 1 -2.995871,2.99587 2.9958669,2.9958669 0 0 1 -2.995868,-2.99587 2.9958669,2.9958669 0 0 1 2.995868,-2.99587 2.9958669,2.9958669 0 0 1 2.995871,2.99587 z" />
    <path
       id="path875-35"
       style="fill:#FFFFFF;fill-opacity:1;stroke:none;stroke-width:0.599172;stroke-miterlimit:4;stroke-dasharray:none;stroke-opacity:1"
       d="m 78.361609,101.27079 a 2.9958669,2.9958669 0 0 1 -2.995867,2.99587 2.9958669,2.9958669 0 0 1 -2.995868,-2.99587 2.9958669,2.9958669 0 0 1 2.995868,-2.995865 2.9958669,2.9958669 0 0 1 2.995867,2.995865 z" />
    <path
       id="path875-2"
       style="fill:#FFFFFF;fill-opacity:1;stroke:none;stroke-width:0.599172;stroke-miterlimit:4;stroke-dasharray:none;stroke-opacity:1"
       d="m 46.298712,139.04855 a 2.9958669,2.9958669 0 0 1 -2.995868,2.99587 2.9958669,2.9958669 0 0 1 -2.995867,-2.99587 2.9958669,2.9958669 0 0 1 2.995867,-2.99587 2.9958669,2.9958669 0 0 1 2.995868,2.99587 z" />
    <path
       id="path875-57"
       style="fill:#FFFFFF;fill-opacity:1;stroke:none;stroke-width:0.599172;stroke-miterlimit:4;stroke-dasharray:none;stroke-opacity:1"
       d="m 18.113938,139.04855 a 2.9958669,2.9958669 0 0 1 -2.995867,2.99587 2.9958669,2.9958669 0 0 1 -2.995867,-2.99587 2.9958669,2.9958669 0 0 1 2.995867,-2.99587 2.9958669,2.9958669 0 0 1 2.995867,2.99587 z" />
    <path
       style="color:#000000;font-style:normal;font-variant:normal;font-weight:normal;font-stretch:normal;font-size:medium;line-height:normal;font-family:sans-serif;font-variant-ligatures:normal;font-variant-position:normal;font-variant-caps:normal;font-variant-numeric:normal;font-variant-alternates:normal;font-variant-east-asian:normal;font-feature-settings:normal;font-variation-settings:normal;text-indent:0;text-align:start;text-decoration:none;text-decoration-line:none;text-decoration-style:solid;text-decoration-color:#000000;letter-spacing:normal;word-spacing:normal;text-transform:none;writing-mode:lr-tb;direction:ltr;text-orientation:mixed;dominant-baseline:auto;baseline-shift:baseline;text-anchor:start;white-space:normal;shape-padding:0;shape-margin:0;inline-size:0;clip-rule:nonzero;display:inline;overflow:visible;visibility:visible;opacity:1;isolation:auto;mix-blend-mode:normal;color-interpolation:sRGB;color-interpolation-filters:linearRGB;solid-color:#000000;solid-opacity:1;vector-effect:none;fill:#FFFFFF;fill-opacity:1;fill-rule:nonzero;stroke:none;stroke-width:1.19835;stroke-linecap:butt;stroke-linejoin:miter;stroke-miterlimit:4;stroke-dasharray:none;stroke-dashoffset:0;stroke-opacity:1;color-rendering:auto;image-rendering:auto;shape-rendering:auto;text-rendering:auto;enable-background:accumulate;stop-color:#000000;stop-opacity:1"
       d="m 75.702119,101.02374 -27.62517,8.05842 0.334693,1.15153 27.627512,-8.05841 z"
       id="path1389" />
    <path
       style="color:#000000;font-style:normal;font-variant:normal;font-weight:normal;font-stretch:normal;font-size:medium;line-height:normal;font-family:sans-serif;font-variant-ligatures:normal;font-variant-position:normal;font-variant-caps:normal;font-variant-numeric:normal;font-variant-alternates:normal;font-variant-east-asian:normal;font-feature-settings:normal;font-variation-settings:normal;text-indent:0;text-align:start;text-decoration:none;text-decoration-line:none;text-decoration-style:solid;text-decoration-color:#000000;letter-spacing:normal;word-spacing:normal;text-transform:none;writing-mode:lr-tb;direction:ltr;text-orientation:mixed;dominant-baseline:auto;baseline-shift:baseline;text-anchor:start;white-space:normal;shape-padding:0;shape-margin:0;inline-size:0;clip-rule:nonzero;display:inline;overflow:visible;visibility:visible;opacity:1;isolation:auto;mix-blend-mode:normal;color-interpolation:sRGB;color-interpolation-filters:linearRGB;solid-color:#000000;solid-opacity:1;vector-effect:none;fill:#FFFFFF;fill-opacity:1;fill-rule:nonzero;stroke:none;stroke-width:1.19835;stroke-linecap:butt;stroke-linejoin:miter;stroke-miterlimit:4;stroke-dasharray:none;stroke-dashoffset:0;stroke-opacity:1;color-rendering:auto;image-rendering:auto;shape-rendering:auto;text-rendering:auto;enable-background:accumulate;stop-color:#000000;stop-opacity:1"
       d="m 66.780051,50.267199 -1.177282,0.22235 9.678057,51.222301 1.177283,-0.22235 z"
       id="path1393" />
    <path
       style="color:#000000;font-style:normal;font-variant:normal;font-weight:normal;font-stretch:normal;font-size:medium;line-height:normal;font-family:sans-serif;font-variant-ligatures:normal;font-variant-position:normal;font-variant-caps:normal;font-variant-numeric:normal;font-variant-alternates:normal;font-variant-east-asian:normal;font-feature-settings:normal;font-variation-settings:normal;text-indent:0;text-align:start;text-decoration:none;text-decoration-line:none;text-decoration-style:solid;text-decoration-color:#000000;letter-spacing:normal;word-spacing:normal;text-transform:none;writing-mode:lr-tb;direction:ltr;text-orientation:mixed;dominant-baseline:auto;baseline-shift:baseline;text-anchor:start;white-space:normal;shape-padding:0;shape-margin:0;inline-size:0;clip-rule:nonzero;display:inline;overflow:visible;visibility:visible;opacity:1;isolation:auto;mix-blend-mode:normal;color-interpolation:sRGB;color-interpolation-filters:linearRGB;solid-color:#000000;solid-opacity:1;vector-effect:none;fill:#FFFFFF;fill-opacity:1;fill-rule:nonzero;stroke:none;stroke-width:1.19835;stroke-linecap:butt;stroke-linejoin:miter;stroke-miterlimit:4;stroke-dasharray:none;stroke-dashoffset:0;stroke-opacity:1;color-rendering:auto;image-rendering:auto;shape-rendering:auto;text-rendering:auto;enable-background:accumulate;stop-color:#000000;stop-opacity:1"
       d="m 43.445057,72.54896 -28.762663,66.00035 1.100045,0.47981 28.760324,-66.000354 z"
       id="path1397" />
    <path
       style="color:#000000;font-style:normal;font-variant:normal;font-weight:normal;font-stretch:normal;font-size:medium;line-height:normal;font-family:sans-serif;font-variant-ligatures:normal;font-variant-position:normal;font-variant-caps:normal;font-variant-numeric:normal;font-variant-alternates:normal;font-variant-east-asian:normal;font-feature-settings:normal;font-variation-settings:normal;text-indent:0;text-align:start;text-decoration:none;text-decoration-line:none;text-decoration-style:solid;text-decoration-color:#000000;letter-spacing:normal;word-spacing:normal;text-transform:none;writing-mode:lr-tb;direction:ltr;text-orientation:mixed;dominant-baseline:auto;baseline-shift:baseline;text-anchor:start;white-space:normal;shape-padding:0;shape-margin:0;inline-size:0;clip-rule:nonzero;display:inline;overflow:visible;visibility:visible;opacity:1;isolation:auto;mix-blend-mode:normal;color-interpolation:sRGB;color-interpolation-filters:linearRGB;solid-color:#000000;solid-opacity:1;vector-effect:none;fill:#FFFFFF;fill-opacity:1;fill-rule:nonzero;stroke:none;stroke-width:1.19835;stroke-linecap:butt;stroke-linejoin:miter;stroke-miterlimit:4;stroke-dasharray:none;stroke-dashoffset:0;stroke-opacity:1;color-rendering:auto;image-rendering:auto;shape-rendering:auto;text-rendering:auto;enable-background:accumulate;stop-color:#000000;stop-opacity:1"
       d="m 15.620943,47.80263 -0.777054,0.910463 28.760324,24.531001 0.779394,-0.910463 z"
       id="path1401" />
    <path
       id="path875-27"
       style="fill:#FFFFFF;fill-opacity:1;stroke:none;stroke-width:0.599172;stroke-miterlimit:4;stroke-dasharray:none;stroke-opacity:1"
       d="m 137.7483,139.04855 a 2.9958669,2.9958669 0 0 1 -2.99587,2.99587 2.9958669,2.9958669 0 0 1 -2.99587,-2.99587 2.9958669,2.9958669 0 0 1 2.99587,-2.99587 2.9958669,2.9958669 0 0 1 2.99587,2.99587 z" />
    <path
       id="path875-45"
       style="fill:#FFFFFF;fill-opacity:1;stroke:none;stroke-width:0.599172;stroke-miterlimit:4;stroke-dasharray:none;stroke-opacity:1"
       d="m 151.12003,139.04855 a 2.9958669,2.9958669 0 0 1 -2.99587,2.99587 2.9958669,2.9958669 0 0 1 -2.99587,-2.99587 2.9958669,2.9958669 0 0 1 2.99587,-2.99587 2.9958669,2.9958669 0 0 1 2.99587,2.99587 z" />
    <path
       id="path875-49"
       style="fill:#FFFFFF;fill-opacity:1;stroke:none;stroke-width:0.599172;stroke-miterlimit:4;stroke-dasharray:none;stroke-opacity:1"
       d="m 179.46494,139.04855 a 2.9958669,2.9958669 0 0 1 -2.99587,2.99587 2.9958669,2.9958669 0 0 1 -2.99586,-2.99587 2.9958669,2.9958669 0 0 1 2.99586,-2.99587 2.9958669,2.9958669 0 0 1 2.99587,2.99587 z" />
    <path
       id="path875-28"
       style="fill:#FFFFFF;fill-opacity:1;stroke:none;stroke-width:0.599172;stroke-miterlimit:4;stroke-dasharray:none;stroke-opacity:1"
       d="m 109.48349,139.04855 a 2.9958669,2.9958669 0 0 1 -2.99587,2.99587 2.9958669,2.9958669 0 0 1 -2.99587,-2.99587 2.9958669,2.9958669 0 0 1 2.99587,-2.99587 2.9958669,2.9958669 0 0 1 2.99587,2.99587 z" />
    <path
       id="path875-94"
       style="fill:#FFFFFF;fill-opacity:1;stroke:none;stroke-width:0.599172;stroke-miterlimit:4;stroke-dasharray:none;stroke-opacity:1"
       d="m 138.18336,89.340297 a 2.9958669,2.9958669 0 0 1 -2.99587,2.995868 2.9958669,2.9958669 0 0 1 -2.99587,-2.995868 2.9958669,2.9958669 0 0 1 2.99587,-2.995867 2.9958669,2.9958669 0 0 1 2.99587,2.995867 z" />
    <path
       id="path875-0"
       style="fill:#FFFFFF;fill-opacity:1;stroke:none;stroke-width:0.599172;stroke-miterlimit:4;stroke-dasharray:none;stroke-opacity:1"
       d="m 150.99463,111.84008 a 2.9958669,2.9958669 0 0 1 -2.99587,2.99587 2.9958669,2.9958669 0 0 1 -2.99586,-2.99587 2.9958669,2.9958669 0 0 1 2.99586,-2.99586 2.9958669,2.9958669 0 0 1 2.99587,2.99586 z" />
    <path
       id="path875-32"
       style="fill:#FFFFFF;fill-opacity:1;stroke:none;stroke-width:0.599172;stroke-miterlimit:4;stroke-dasharray:none;stroke-opacity:1"
       d="m 144.26873,72.765728 a 2.9958669,2.9958669 0 0 1 -2.99587,2.995866 2.9958669,2.9958669 0 0 1 -2.99586,-2.995866 2.9958669,2.9958669 0 0 1 2.99586,-2.995867 2.9958669,2.9958669 0 0 1 2.99587,2.995867 z" />
    <path
       id="path875-38"
       style="fill:#FFFFFF;fill-opacity:1;stroke:none;stroke-width:0.599172;stroke-miterlimit:4;stroke-dasharray:none;stroke-opacity:1"
       d="m 178.29861,69.082488 a 2.9958669,2.9958669 0 0 1 -2.99586,2.995867 2.9958669,2.9958669 0 0 1 -2.99587,-2.995867 2.9958669,2.9958669 0 0 1 2.99587,-2.995867 2.9958669,2.9958669 0 0 1 2.99586,2.995867 z" />
    <path
       id="path875-71"
       style="fill:#FFFFFF;fill-opacity:1;stroke:none;stroke-width:0.599172;stroke-miterlimit:4;stroke-dasharray:none;stroke-opacity:1"
       d="m 109.75844,75.247911 a 2.9958669,2.9958669 0 0 1 -2.99586,2.995865 2.9958669,2.9958669 0 0 1 -2.99587,-2.995865 2.9958669,2.9958669 0 0 1 2.99587,-2.995868 2.9958669,2.9958669 0 0 1 2.99586,2.995868 z" />
    <path
       id="path875-36"
       style="fill:#FFFFFF;fill-opacity:1;stroke:none;stroke-width:0.599172;stroke-miterlimit:4;stroke-dasharray:none;stroke-opacity:1"
       d="m 141.14593,46.262424 a 2.9958669,2.9958669 0 0 1 -2.99586,2.995867 2.9958669,2.9958669 0 0 1 -2.99587,-2.995867 2.9958669,2.9958669 0 0 1 2.99587,-2.995867 2.9958669,2.9958669 0 0 1 2.99586,2.995867 z" />
    <path
       style="color:#000000;font-style:normal;font-variant:normal;font-weight:normal;font-stretch:normal;font-size:medium;line-height:normal;font-family:sans-serif;font-variant-ligatures:normal;font-variant-position:normal;font-variant-caps:normal;font-variant-numeric:normal;font-variant-alternates:normal;font-variant-east-asian:normal;font-feature-settings:normal;font-variation-settings:normal;text-indent:0;text-align:start;text-decoration:none;text-decoration-line:none;text-decoration-style:solid;text-decoration-color:#000000;letter-spacing:normal;word-spacing:normal;text-transform:none;writing-mode:lr-tb;direction:ltr;text-orientation:mixed;dominant-baseline:auto;baseline-shift:baseline;text-anchor:start;white-space:normal;shape-padding:0;shape-margin:0;inline-size:0;clip-rule:nonzero;display:inline;overflow:visible;visibility:visible;opacity:1;isolation:auto;mix-blend-mode:normal;color-interpolation:sRGB;color-interpolation-filters:linearRGB;solid-color:#000000;solid-opacity:1;vector-effect:none;fill:#FFFFFF;fill-opacity:1;fill-rule:nonzero;stroke:none;stroke-width:1.19835;stroke-linecap:butt;stroke-linejoin:miter;stroke-miterlimit:4;stroke-dasharray:none;stroke-dashoffset:0;stroke-opacity:1;color-rendering:auto;image-rendering:auto;shape-rendering:auto;text-rendering:auto;enable-background:accumulate;stop-color:#000000;stop-opacity:1"
       d="m 137.45676,45.796804 -32.02065,29.874411 29.91652,14.958268 0.53599,-1.071957 -28.37414,-14.1859 30.11548,-28.095613 37.50452,21.408746 -27.46836,43.440071 28.84224,27.81007 0.83322,-0.86365 -28.14242,-27.13132 27.61814,-43.674124 z"
       id="path1405" />
    <path
       id="path875-38-5"
       style="fill:#FFFFFF;fill-opacity:1;stroke:none;stroke-width:0.599172;stroke-miterlimit:4;stroke-dasharray:none;stroke-opacity:1"
       d="m 200.31784,48.140544 a 2.9958669,2.9958669 0 0 1 -2.99587,2.995867 2.9958669,2.9958669 0 0 1 -2.99586,-2.995867 2.9958669,2.9958669 0 0 1 2.99586,-2.995867 2.9958669,2.9958669 0 0 1 2.99587,2.995867 z" />
    <path
       id="path875-38-7"
       style="fill:#FFFFFF;fill-opacity:1;stroke:none;stroke-width:0.599172;stroke-miterlimit:4;stroke-dasharray:none;stroke-opacity:1"
       d="m 200.27408,139.04855 a 2.9958669,2.9958669 0 0 1 -2.99587,2.99587 2.9958669,2.9958669 0 0 1 -2.99587,-2.99587 2.9958669,2.9958669 0 0 1 2.99587,-2.99587 2.9958669,2.9958669 0 0 1 2.99587,2.99587 z" />
    <path
       id="path875-38-8"
       style="fill:#FFFFFF;fill-opacity:1;stroke:none;stroke-width:0.599172;stroke-miterlimit:4;stroke-dasharray:none;stroke-opacity:1"
       d="m 229.16107,139.04855 a 2.9958669,2.9958669 0 0 1 -2.99587,2.99587 2.9958669,2.9958669 0 0 1 -2.99587,-2.99587 2.9958669,2.9958669 0 0 1 2.99587,-2.99587 2.9958669,2.9958669 0 0 1 2.99587,2.99587 z" />
    <path
       id="path875-38-87"
       style="fill:#FFFFFF;fill-opacity:1;stroke:none;stroke-width:0.599172;stroke-miterlimit:4;stroke-dasharray:none;stroke-opacity:1"
       d="m 252.01251,48.499681 a 2.9958669,2.9958669 0 0 1 -2.99587,2.995867 2.9958669,2.9958669 0 0 1 -2.99585,-2.995867 2.9958669,2.9958669 0 0 1 2.99585,-2.995867 2.9958669,2.9958669 0 0 1 2.99587,2.995867 z" />
    <path
       id="path875-38-1"
       style="fill:#FFFFFF;fill-opacity:1;stroke:none;stroke-width:0.599172;stroke-miterlimit:4;stroke-dasharray:none;stroke-opacity:1"
       d="m 289.89951,75.580374 a 2.9958669,2.9958669 0 0 1 -2.99585,2.995867 2.9958669,2.9958669 0 0 1 -2.99587,-2.995867 2.9958669,2.9958669 0 0 1 2.99587,-2.995868 2.9958669,2.9958669 0 0 1 2.99585,2.995868 z" />
    <path
       id="path875-38-2"
       style="fill:#FFFFFF;fill-opacity:1;stroke:none;stroke-width:0.599172;stroke-miterlimit:4;stroke-dasharray:none;stroke-opacity:1"
       d="m 228.9167,74.856577 a 2.9958669,2.9958669 0 0 1 -2.99587,2.995868 2.9958669,2.9958669 0 0 1 -2.99587,-2.995868 2.9958669,2.9958669 0 0 1 2.99587,-2.995867 2.9958669,2.9958669 0 0 1 2.99587,2.995867 z" />
    <path
       id="path875-38-6"
       style="fill:#FFFFFF;fill-opacity:1;stroke:none;stroke-width:0.599172;stroke-miterlimit:4;stroke-dasharray:none;stroke-opacity:1"
       d="m 228.67817,112.79302 a 2.9958669,2.9958669 0 0 1 -2.99587,2.99587 2.9958669,2.9958669 0 0 1 -2.99587,-2.99587 2.9958669,2.9958669 0 0 1 2.99587,-2.99587 2.9958669,2.9958669 0 0 1 2.99587,2.99587 z" />
    <path
       id="path875-38-6-2"
       style="fill:#FFFFFF;fill-opacity:1;stroke:none;stroke-width:0.599172;stroke-miterlimit:4;stroke-dasharray:none;stroke-opacity:1"
       d="m 263.96495,93.611194 a 2.9958669,2.9958669 0 0 1 -2.99587,2.995867 2.9958669,2.9958669 0 0 1 -2.99586,-2.995867 2.9958669,2.9958669 0 0 1 2.99586,-2.995867 2.9958669,2.9958669 0 0 1 2.99587,2.995867 z" />
    <path
       id="path875-38-6-7"
       style="fill:#FFFFFF;fill-opacity:1;stroke:none;stroke-width:0.599172;stroke-miterlimit:4;stroke-dasharray:none;stroke-opacity:1"
       d="m 279.10274,125.76824 a 2.9958669,2.9958669 0 0 1 -2.99586,2.99587 2.9958669,2.9958669 0 0 1 -2.99587,-2.99587 2.9958669,2.9958669 0 0 1 2.99587,-2.99587 2.9958669,2.9958669 0 0 1 2.99586,2.99587 z" />
    <path
       style="color:#000000;font-style:normal;font-variant:normal;font-weight:normal;font-stretch:normal;font-size:medium;line-height:normal;font-family:sans-serif;font-variant-ligatures:normal;font-variant-position:normal;font-variant-caps:normal;font-variant-numeric:normal;font-variant-alternates:normal;font-variant-east-asian:normal;font-feature-settings:normal;font-variation-settings:normal;text-indent:0;text-align:start;text-decoration:none;text-decoration-line:none;text-decoration-style:solid;text-decoration-color:#000000;letter-spacing:normal;word-spacing:normal;text-transform:none;writing-mode:lr-tb;direction:ltr;text-orientation:mixed;dominant-baseline:auto;baseline-shift:baseline;text-anchor:start;white-space:normal;shape-padding:0;shape-margin:0;inline-size:0;clip-rule:nonzero;display:inline;overflow:visible;visibility:visible;opacity:1;isolation:auto;mix-blend-mode:normal;color-interpolation:sRGB;color-interpolation-filters:linearRGB;solid-color:#000000;solid-opacity:1;vector-effect:none;fill:#FFFFFF;fill-opacity:1;fill-rule:nonzero;stroke:none;stroke-width:1.19835;stroke-linecap:butt;stroke-linejoin:miter;stroke-miterlimit:4;stroke-dasharray:none;stroke-dashoffset:0;stroke-opacity:1;color-rendering:auto;image-rendering:auto;shape-rendering:auto;text-rendering:auto;enable-background:accumulate;stop-color:#000000;stop-opacity:1"
       d="m 197.61752,47.456234 -0.80514,0.887057 28.92649,26.354266 58.64879,1.29197 -25.15825,17.134953 16.17064,32.11663 -49.98884,-13.29884 -28.60585,26.7662 0.81919,0.87535 28.12135,-26.31213 51.92212,13.81141 -16.89388,-33.560731 27.38177,-18.649272 -61.9419,-1.362184 z"
       id="path1409" />
    <path
       style="color:#000000;font-style:normal;font-variant:normal;font-weight:normal;font-stretch:normal;font-size:medium;line-height:normal;font-family:sans-serif;font-variant-ligatures:normal;font-variant-position:normal;font-variant-caps:normal;font-variant-numeric:normal;font-variant-alternates:normal;font-variant-east-asian:normal;font-feature-settings:normal;font-variation-settings:normal;text-indent:0;text-align:start;text-decoration:none;text-decoration-line:none;text-decoration-style:solid;text-decoration-color:#000000;letter-spacing:normal;word-spacing:normal;text-transform:none;writing-mode:lr-tb;direction:ltr;text-orientation:mixed;dominant-baseline:auto;baseline-shift:baseline;text-anchor:start;white-space:normal;shape-padding:0;shape-margin:0;inline-size:0;clip-rule:nonzero;display:inline;overflow:visible;visibility:visible;opacity:1;isolation:auto;mix-blend-mode:normal;color-interpolation:sRGB;color-interpolation-filters:linearRGB;solid-color:#000000;solid-opacity:1;vector-effect:none;fill:#FFFFFF;fill-opacity:1;fill-rule:nonzero;stroke:none;stroke-width:1.19835;stroke-linecap:butt;stroke-linejoin:miter;stroke-miterlimit:4;stroke-dasharray:none;stroke-dashoffset:0;stroke-opacity:1;color-rendering:auto;image-rendering:auto;shape-rendering:auto;text-rendering:auto;enable-background:accumulate;stop-color:#000000;stop-opacity:1"
       d="m 197.20324,138.54697 -20.28997,0.35576 0.0211,1.19835 20.28997,-0.35576 z"
       id="path1413" />
    <path
       style="color:#000000;font-style:normal;font-variant:normal;font-weight:normal;font-stretch:normal;font-size:medium;line-height:normal;font-family:sans-serif;font-variant-ligatures:normal;font-variant-position:normal;font-variant-caps:normal;font-variant-numeric:normal;font-variant-alternates:normal;font-variant-east-asian:normal;font-feature-settings:normal;font-variation-settings:normal;text-indent:0;text-align:start;text-decoration:none;text-decoration-line:none;text-decoration-style:solid;text-decoration-color:#000000;letter-spacing:normal;word-spacing:normal;text-transform:none;writing-mode:lr-tb;direction:ltr;text-orientation:mixed;dominant-baseline:auto;baseline-shift:baseline;text-anchor:start;white-space:normal;shape-padding:0;shape-margin:0;inline-size:0;clip-rule:nonzero;display:inline;overflow:visible;visibility:visible;opacity:1;isolation:auto;mix-blend-mode:normal;color-interpolation:sRGB;color-interpolation-filters:linearRGB;solid-color:#000000;solid-opacity:1;vector-effect:none;fill:#FFFFFF;fill-opacity:1;fill-rule:nonzero;stroke:none;stroke-width:1.19835;stroke-linecap:butt;stroke-linejoin:miter;stroke-miterlimit:4;stroke-dasharray:none;stroke-dashoffset:0;stroke-opacity:1;color-rendering:auto;image-rendering:auto;shape-rendering:auto;text-rendering:auto;enable-background:accumulate;stop-color:#000000;stop-opacity:1"
       d="m 105.89016,75.395035 -13.909717,63.980485 1.170262,0.25511 13.909725,-63.98282 z"
       id="path1417" />
    <text
       xml:space="preserve"
       style="font-style:normal;font-variant:normal;font-weight:normal;font-stretch:normal;font-size:16.4872px;line-height:1.25;font-family:'Tw Cen MT';-inkscape-font-specification:'Tw Cen MT';fill:#FFFFFF;stroke-width:0.317062"
       x="12.511656"
       y="161.03871"
       id="text1421"><tspan
         sodipodi:role="line"
         id="tspan1419"
         x="12.511656"
         y="161.03871"
         style="font-style:normal;font-variant:normal;font-weight:normal;font-stretch:normal;font-size:16.4872px;font-family:'Tw Cen MT';-inkscape-font-specification:'Tw Cen MT';fill:#FFFFFF;stroke-width:0.317062">SCHOOL OF OLYMPIAD PROGRAMMING</tspan></text>
  </g>
</svg>
